<svg width="19" height="19" viewBox="0 0 19 19" fill="none" xmlns="http://www.w3.org/2000/svg">
<path d="M17.8125 0.15625H1.5625C1.29314 0.15625 1.03481 0.263253 0.844345 0.45372C0.653878 0.644186 0.546875 0.902515 0.546875 1.17188V17.4219C0.546875 17.6912 0.653878 17.9496 0.844345 18.14C1.03481 18.3305 1.29314 18.4375 1.5625 18.4375H17.8125C18.0819 18.4375 18.3402 18.3305 18.5307 18.14C18.7211 17.9496 18.8281 17.6912 18.8281 17.4219V1.17188C18.8281 0.902515 18.7211 0.644186 18.5307 0.45372C18.3402 0.263253 18.0819 0.15625 17.8125 0.15625ZM5.9693 15.7329H3.25555V7.00867H5.9693V15.7329ZM4.61242 5.81734C4.19545 5.81734 3.79556 5.6517 3.50072 5.35686C3.20587 5.06202 3.04023 4.66213 3.04023 4.24516C3.04023 3.82819 3.20587 3.42829 3.50072 3.13345C3.79556 2.83861 4.19545 2.67297 4.61242 2.67297C5.02939 2.67297 5.42928 2.83861 5.72413 3.13345C6.01897 3.42829 6.18461 3.82819 6.18461 4.24516C6.18461 4.66213 6.01897 5.06202 5.72413 5.35686C5.42928 5.6517 5.02939 5.81734 4.61242 5.81734ZM16.1245 15.7329H13.4138V11.4906C13.4138 10.4791 13.3955 9.17805 12.0041 9.17805C10.5924 9.17805 10.3781 10.281 10.3781 11.4195V15.7339H7.66945V7.00969H10.2695V8.20203H10.307C10.6676 7.51648 11.5532 6.79336 12.8705 6.79336C15.6167 6.79336 16.1235 8.59914 16.1235 10.9493V15.7329H16.1245Z" fill="#C6CBCD"/>
</svg>
