<svg width="21" height="17" viewBox="0 0 21 17" fill="none" xmlns="http://www.w3.org/2000/svg">
<path d="M18.7523 4.21203C18.7655 4.38977 18.7655 4.56649 18.7655 4.7432C18.7655 10.1514 14.6491 16.3833 7.12641 16.3833C4.80875 16.3833 2.65562 15.712 0.84375 14.546C1.17281 14.5836 1.48969 14.5968 1.83195 14.5968C3.67327 14.6012 5.46245 13.9855 6.91109 12.8489C6.05738 12.8335 5.2298 12.5518 4.54391 12.0432C3.85802 11.5347 3.34806 10.8247 3.08523 10.0123C3.33812 10.0498 3.59203 10.0752 3.85812 10.0752C4.22477 10.0752 4.59344 10.0245 4.9357 9.9361C4.00921 9.74903 3.17611 9.24684 2.57805 8.51491C1.97999 7.78299 1.65391 6.86652 1.65523 5.92133V5.87055C2.20063 6.17422 2.83336 6.36414 3.50367 6.38953C2.94212 6.01638 2.48167 5.51002 2.16339 4.91565C1.84512 4.32127 1.67891 3.65735 1.67961 2.98313C1.67961 2.22344 1.88172 1.52672 2.23617 0.919376C3.26413 2.18385 4.54621 3.21831 5.9994 3.95575C7.45259 4.69319 9.04448 5.11717 10.672 5.20023C10.609 4.89555 10.5704 4.57969 10.5704 4.26281C10.5701 3.72551 10.6758 3.19342 10.8813 2.69696C11.0867 2.20051 11.3881 1.74942 11.768 1.36949C12.1479 0.989556 12.599 0.68823 13.0955 0.482736C13.5919 0.277242 14.124 0.171609 14.6613 0.171876C15.8395 0.171876 16.9028 0.665469 17.6503 1.46375C18.5662 1.28664 19.4445 0.952304 20.2463 0.475547C19.941 1.42091 19.3015 2.22253 18.4476 2.73023C19.2599 2.63759 20.0537 2.42398 20.8028 2.09648C20.2433 2.91213 19.5501 3.62738 18.7523 4.21203Z" fill="#C6CBCD"/>
</svg>
